<mxfile host="app.diagrams.net" modified="2024-05-21T16:50:34.463Z" agent="Mozilla/5.0 (X11; Linux x86_64) AppleWebKit/537.36 (KHTML, like Gecko) Chrome/124.0.0.0 Safari/537.36" version="24.4.4" etag="UoB77YdEUzdswJKjOlM3" type="github">
  <diagram name="Страница — 1" id="0Wwqm_B85rsJBA9X-SUW">
    <mxGraphModel>
      <root>
        <mxCell id="0" />
        <mxCell id="1" parent="0" />
      </root>
    </mxGraphModel>
  </diagram>
</mxfile>
